# xmcd
#
# Track frame offsets:
#	150
#	11868
#	23861
#	35448
#	47178
#	58263
#	72492
#	85030
#	101014
#	106544
#	119940
#	136108
#	147008
#	163245
#	178665
#	188284
#	204689
#	215485
#	227791
#	242703
#
# Disc length: 3389 seconds
#
# Revision: 0
# Processed by: cddbd v1.5.2PL0 Copyright (c) Steve Scherf et al.
# Submitted via: audiograbber 1.83.01
#
DISCID=210d3b14
DTITLE=VARIOUS (BY DJ ZRAF) - г лгвамг тоу вяомоу [CD 2)
DYEAR=2007
DGENRE=Pop
TTITLE0=OLYMPIANS - свокеио
TTITLE1=акейа йамеккидоу - CARZY GIRL
TTITLE2=екема and SOVER GROUP - се пеяилемы то акко йакойаияи
TTITLE3=ALBA, ARIS and THE OLYMPICS - стг лала лоу ха то пы
TTITLE4=STRANGERS - яамтебоу
TTITLE5=бояяеиои - то тфими
TTITLE6=VAKINGS - FRANCOISE
TTITLE7=стауяос фыяас - есема се неяы тосо кицо
TTITLE8=йыстас боутсас - жсст лпоимцй
TTITLE9=OLYMPIANS - о тяопос
TTITLE10=сожг and NEW HOPES - памта пеяилемы
TTITLE11=екема and SOVER - ацояи лоу цкуйо
TTITLE12=бояяеиои - сакоума
TTITLE13=VIKINGS - CATHERINE
TTITLE14=йыстас боутсас - аьоу цеитсес
TTITLE15=TONY PINELLI - амтио
TTITLE16=цаканиес - ема йояитси циа SHAKE
TTITLE17=жоимийес - дыс' лоу тгм ацапг соу
TTITLE18=оявгстяа - DOIN' THE JENKA
TTITLE19=NEW HOPES - евы бяеи тгм ацапг
EXTD=
EXTT0=
EXTT1=
EXTT2=
EXTT3=
EXTT4=
EXTT5=
EXTT6=
EXTT7=
EXTT8=
EXTT9=
EXTT10=
EXTT11=
EXTT12=
EXTT13=
EXTT14=
EXTT15=
EXTT16=
EXTT17=
EXTT18=
EXTT19=
PLAYORDER=
